<mxfile host="app.diagrams.net" agent="Mozilla/5.0 (Windows NT 10.0; Win64; x64) AppleWebKit/537.36 (KHTML, like Gecko) Chrome/128.0.0.0 Safari/537.36" version="24.7.13">
  <diagram id="Ht1M8jgEwFfnCIfOTk4-" name="Page-1">
    <mxGraphModel dx="1035" dy="1328" grid="1" gridSize="10" guides="1" tooltips="1" connect="1" arrows="1" fold="1" page="1" pageScale="1" pageWidth="1169" pageHeight="827" math="0" shadow="0">
      <root>
        <mxCell id="0" />
        <mxCell id="1" parent="0" />
        <mxCell id="UEzPUAAOIrF-is8g5C7q-175" value="AWS Cloud" style="points=[[0,0],[0.25,0],[0.5,0],[0.75,0],[1,0],[1,0.25],[1,0.5],[1,0.75],[1,1],[0.75,1],[0.5,1],[0.25,1],[0,1],[0,0.75],[0,0.5],[0,0.25]];outlineConnect=0;gradientColor=none;html=1;whiteSpace=wrap;fontSize=12;fontStyle=0;shape=mxgraph.aws4.group;grIcon=mxgraph.aws4.group_aws_cloud_alt;strokeColor=#232F3E;fillColor=none;verticalAlign=top;align=left;spacingLeft=30;fontColor=#232F3E;dashed=0;labelBackgroundColor=#ffffff;container=1;pointerEvents=0;collapsible=0;recursiveResize=0;movable=0;resizable=0;rotatable=0;deletable=0;editable=0;locked=1;connectable=0;" parent="1" vertex="1">
          <mxGeometry x="220" y="-820" width="730" height="739.5" as="geometry" />
        </mxCell>
        <mxCell id="839mXaEyEuc4Z5KTpTyV-1" value="VPC" style="sketch=0;outlineConnect=0;html=1;whiteSpace=wrap;fontSize=12;fontStyle=0;shape=mxgraph.aws4.group;grIcon=mxgraph.aws4.group_vpc;strokeColor=#d79b00;fillColor=#ffe6cc;verticalAlign=top;align=left;spacingLeft=30;dashed=0;movable=0;resizable=0;rotatable=0;deletable=0;editable=0;locked=1;connectable=0;" vertex="1" parent="UEzPUAAOIrF-is8g5C7q-175">
          <mxGeometry x="60" y="50" width="610" height="610" as="geometry" />
        </mxCell>
        <mxCell id="839mXaEyEuc4Z5KTpTyV-6" value="Private subnet" style="points=[[0,0],[0.25,0],[0.5,0],[0.75,0],[1,0],[1,0.25],[1,0.5],[1,0.75],[1,1],[0.75,1],[0.5,1],[0.25,1],[0,1],[0,0.75],[0,0.5],[0,0.25]];outlineConnect=0;gradientColor=none;html=1;whiteSpace=wrap;fontSize=12;fontStyle=0;container=1;pointerEvents=0;collapsible=0;recursiveResize=0;shape=mxgraph.aws4.group;grIcon=mxgraph.aws4.group_security_group;grStroke=0;strokeColor=#00A4A6;fillColor=#E6F6F7;verticalAlign=top;align=left;spacingLeft=30;fontColor=#147EBA;dashed=0;aspect=fixed;" vertex="1" parent="1">
          <mxGeometry x="630" y="-584" width="200" height="200" as="geometry" />
        </mxCell>
        <mxCell id="839mXaEyEuc4Z5KTpTyV-11" value="" style="outlineConnect=0;dashed=0;verticalLabelPosition=bottom;verticalAlign=top;align=center;html=1;shape=mxgraph.aws3.route_table;fillColor=#F58536;gradientColor=none;" vertex="1" parent="839mXaEyEuc4Z5KTpTyV-6">
          <mxGeometry x="150" y="151" width="42.39" height="39" as="geometry" />
        </mxCell>
        <mxCell id="839mXaEyEuc4Z5KTpTyV-15" value="EC2" style="outlineConnect=0;dashed=0;verticalLabelPosition=bottom;verticalAlign=top;align=center;html=1;shape=mxgraph.aws3.ec2;fillColor=#F58534;gradientColor=none;" vertex="1" parent="839mXaEyEuc4Z5KTpTyV-6">
          <mxGeometry x="61.75" y="53.5" width="76.5" height="93" as="geometry" />
        </mxCell>
        <mxCell id="839mXaEyEuc4Z5KTpTyV-7" value="Public subnet" style="points=[[0,0],[0.25,0],[0.5,0],[0.75,0],[1,0],[1,0.25],[1,0.5],[1,0.75],[1,1],[0.75,1],[0.5,1],[0.25,1],[0,1],[0,0.75],[0,0.5],[0,0.25]];outlineConnect=0;gradientColor=none;html=1;whiteSpace=wrap;fontSize=12;fontStyle=0;container=1;pointerEvents=0;collapsible=0;recursiveResize=0;shape=mxgraph.aws4.group;grIcon=mxgraph.aws4.group_security_group;grStroke=0;strokeColor=#7AA116;fillColor=#F2F6E8;verticalAlign=top;align=left;spacingLeft=30;fontColor=#248814;dashed=0;aspect=fixed;" vertex="1" parent="1">
          <mxGeometry x="340" y="-584" width="200" height="200" as="geometry" />
        </mxCell>
        <mxCell id="839mXaEyEuc4Z5KTpTyV-8" value="" style="outlineConnect=0;dashed=0;verticalLabelPosition=bottom;verticalAlign=top;align=center;html=1;shape=mxgraph.aws3.route_table;fillColor=#F58536;gradientColor=none;" vertex="1" parent="839mXaEyEuc4Z5KTpTyV-7">
          <mxGeometry x="150" y="151" width="42.39" height="39" as="geometry" />
        </mxCell>
        <mxCell id="839mXaEyEuc4Z5KTpTyV-14" value="EC2" style="outlineConnect=0;dashed=0;verticalLabelPosition=bottom;verticalAlign=top;align=center;html=1;shape=mxgraph.aws3.ec2;fillColor=#F58534;gradientColor=none;" vertex="1" parent="839mXaEyEuc4Z5KTpTyV-7">
          <mxGeometry x="61.75" y="53.5" width="76.5" height="93" as="geometry" />
        </mxCell>
        <mxCell id="839mXaEyEuc4Z5KTpTyV-13" value="IGW" style="outlineConnect=0;dashed=0;verticalLabelPosition=bottom;verticalAlign=top;align=center;html=1;shape=mxgraph.aws3.internet_gateway;fillColor=#F58534;gradientColor=none;" vertex="1" parent="1">
          <mxGeometry x="260" y="-510" width="40.25" height="42" as="geometry" />
        </mxCell>
        <mxCell id="839mXaEyEuc4Z5KTpTyV-17" value="10.0.0.0/16" style="text;html=1;align=center;verticalAlign=middle;resizable=0;points=[];autosize=1;strokeColor=none;fillColor=none;" vertex="1" parent="1">
          <mxGeometry x="270" y="-790" width="80" height="30" as="geometry" />
        </mxCell>
        <mxCell id="839mXaEyEuc4Z5KTpTyV-18" value="10.0.0.0/24" style="text;html=1;align=center;verticalAlign=middle;resizable=0;points=[];autosize=1;strokeColor=none;fillColor=none;" vertex="1" parent="1">
          <mxGeometry x="340" y="-614" width="80" height="30" as="geometry" />
        </mxCell>
        <mxCell id="839mXaEyEuc4Z5KTpTyV-19" value="10.0.1.0/24" style="text;html=1;align=center;verticalAlign=middle;resizable=0;points=[];autosize=1;strokeColor=none;fillColor=none;" vertex="1" parent="1">
          <mxGeometry x="630" y="-614" width="80" height="30" as="geometry" />
        </mxCell>
        <mxCell id="839mXaEyEuc4Z5KTpTyV-21" style="edgeStyle=orthogonalEdgeStyle;rounded=0;orthogonalLoop=1;jettySize=auto;html=1;exitX=0;exitY=0.5;exitDx=0;exitDy=0;exitPerimeter=0;entryX=1;entryY=0.5;entryDx=0;entryDy=0;entryPerimeter=0;strokeColor=#333333;" edge="1" parent="1" source="839mXaEyEuc4Z5KTpTyV-8" target="839mXaEyEuc4Z5KTpTyV-13">
          <mxGeometry relative="1" as="geometry">
            <Array as="points">
              <mxPoint x="350" y="-413" />
              <mxPoint x="350" y="-489" />
            </Array>
          </mxGeometry>
        </mxCell>
        <mxCell id="839mXaEyEuc4Z5KTpTyV-22" style="edgeStyle=orthogonalEdgeStyle;rounded=0;orthogonalLoop=1;jettySize=auto;html=1;exitX=0;exitY=0.5;exitDx=0;exitDy=0;exitPerimeter=0;entryX=1;entryY=0.5;entryDx=0;entryDy=0;entryPerimeter=0;strokeColor=#333333;" edge="1" parent="1" source="839mXaEyEuc4Z5KTpTyV-11" target="839mXaEyEuc4Z5KTpTyV-20">
          <mxGeometry relative="1" as="geometry">
            <Array as="points">
              <mxPoint x="640" y="-413" />
              <mxPoint x="640" y="-484" />
            </Array>
          </mxGeometry>
        </mxCell>
        <mxCell id="839mXaEyEuc4Z5KTpTyV-20" value="" style="outlineConnect=0;dashed=0;verticalLabelPosition=bottom;verticalAlign=top;align=center;html=1;shape=mxgraph.aws3.vpc_nat_gateway;fillColor=#F58534;gradientColor=none;" vertex="1" parent="1">
          <mxGeometry x="520" y="-505" width="40.24" height="42" as="geometry" />
        </mxCell>
        <mxCell id="839mXaEyEuc4Z5KTpTyV-23" value="" style="fontColor=#0066CC;verticalAlign=top;verticalLabelPosition=bottom;labelPosition=center;align=center;html=1;outlineConnect=0;fillColor=#CCCCCC;strokeColor=#6881B3;gradientColor=none;gradientDirection=north;strokeWidth=2;shape=mxgraph.networks.pc;" vertex="1" parent="1">
          <mxGeometry x="90" y="-300" width="72.86" height="51" as="geometry" />
        </mxCell>
        <mxCell id="839mXaEyEuc4Z5KTpTyV-24" value="Internet" style="image;aspect=fixed;perimeter=ellipsePerimeter;html=1;align=center;shadow=0;dashed=0;spacingTop=3;image=img/lib/active_directory/internet_cloud.svg;" vertex="1" parent="1">
          <mxGeometry x="50.00000000000001" y="-521.8" width="104.12" height="65.6" as="geometry" />
        </mxCell>
        <mxCell id="839mXaEyEuc4Z5KTpTyV-26" style="edgeStyle=orthogonalEdgeStyle;rounded=0;orthogonalLoop=1;jettySize=auto;html=1;exitX=1;exitY=0.5;exitDx=0;exitDy=0;entryX=0;entryY=0.5;entryDx=0;entryDy=0;entryPerimeter=0;endArrow=none;endFill=0;startArrow=classic;startFill=1;strokeColor=#333333;" edge="1" parent="1" source="839mXaEyEuc4Z5KTpTyV-24" target="839mXaEyEuc4Z5KTpTyV-13">
          <mxGeometry relative="1" as="geometry" />
        </mxCell>
      </root>
    </mxGraphModel>
  </diagram>
</mxfile>
